<mxfile host="app.diagrams.net" modified="2023-04-03T09:46:48.162Z" agent="Mozilla/5.0 (Macintosh; Intel Mac OS X 10_15_7) AppleWebKit/537.36 (KHTML, like Gecko) Chrome/111.0.0.0 Safari/537.36" etag="VLR7zwHL949u2G4ZKKny" version="21.1.3" type="github" pages="7">
  <diagram name="Page-1" id="2ukNFJZdqEw4KGF9uxTm">
    <mxGraphModel dx="1864" dy="566" grid="1" gridSize="10" guides="1" tooltips="1" connect="1" arrows="1" fold="1" page="1" pageScale="1" pageWidth="827" pageHeight="1169" math="0" shadow="0">
      <root>
        <mxCell id="0" />
        <mxCell id="1" parent="0" />
        <mxCell id="FrllIYIqwDFJwszf7kwl-4" value="" style="rounded=0;whiteSpace=wrap;html=1;fontSize=10;fillColor=#FFFFFF;container=0;" vertex="1" parent="1">
          <mxGeometry x="-827" width="840" height="1130" as="geometry" />
        </mxCell>
        <mxCell id="FrllIYIqwDFJwszf7kwl-5" value="Start" style="strokeWidth=2;html=1;shape=mxgraph.flowchart.start_1;whiteSpace=wrap;fontSize=10;container=0;" vertex="1" parent="1">
          <mxGeometry x="-667" y="40" width="60" height="30" as="geometry" />
        </mxCell>
        <mxCell id="FrllIYIqwDFJwszf7kwl-6" value="upload attachment" style="rounded=1;whiteSpace=wrap;html=1;absoluteArcSize=1;arcSize=14;strokeWidth=2;fontSize=10;container=0;" vertex="1" parent="1">
          <mxGeometry x="-687" y="100" width="100" height="30" as="geometry" />
        </mxCell>
        <mxCell id="FrllIYIqwDFJwszf7kwl-7" style="edgeStyle=none;rounded=0;sketch=0;orthogonalLoop=1;jettySize=auto;html=1;entryX=0.5;entryY=0;entryDx=0;entryDy=0;fontSize=10;endArrow=classic;endFill=1;" edge="1" parent="1" source="FrllIYIqwDFJwszf7kwl-5" target="FrllIYIqwDFJwszf7kwl-6">
          <mxGeometry relative="1" as="geometry" />
        </mxCell>
        <mxCell id="FrllIYIqwDFJwszf7kwl-9" style="edgeStyle=none;rounded=0;sketch=0;orthogonalLoop=1;jettySize=auto;html=1;fontSize=10;endArrow=classic;endFill=1;" edge="1" parent="1" source="FrllIYIqwDFJwszf7kwl-6" target="FrllIYIqwDFJwszf7kwl-11">
          <mxGeometry relative="1" as="geometry">
            <mxPoint x="-637" y="190" as="targetPoint" />
          </mxGeometry>
        </mxCell>
        <mxCell id="FrllIYIqwDFJwszf7kwl-10" value="" style="edgeStyle=orthogonalEdgeStyle;rounded=0;sketch=0;orthogonalLoop=1;jettySize=auto;html=1;fontSize=10;endArrow=classic;endFill=1;entryX=0.5;entryY=0;entryDx=0;entryDy=0;" edge="1" parent="1" source="FrllIYIqwDFJwszf7kwl-11" target="FrllIYIqwDFJwszf7kwl-59">
          <mxGeometry relative="1" as="geometry">
            <mxPoint x="-502" y="370" as="targetPoint" />
          </mxGeometry>
        </mxCell>
        <mxCell id="FrllIYIqwDFJwszf7kwl-11" value="Save into NFS" style="rounded=1;whiteSpace=wrap;html=1;absoluteArcSize=1;arcSize=14;strokeWidth=2;fontSize=10;fillColor=#FFFFFF;container=0;" vertex="1" parent="1">
          <mxGeometry x="-685.5" y="160" width="97" height="30" as="geometry" />
        </mxCell>
        <mxCell id="FrllIYIqwDFJwszf7kwl-14" value="Consume migration event Kafka topic with ANID" style="whiteSpace=wrap;html=1;fontSize=10;fillColor=#FFFFFF;rounded=1;arcSize=14;strokeWidth=2;container=0;" vertex="1" parent="1">
          <mxGeometry x="-350" y="460" width="110" height="40" as="geometry" />
        </mxCell>
        <mxCell id="FrllIYIqwDFJwszf7kwl-15" value="Map to Certification Service POJO" style="rounded=1;whiteSpace=wrap;html=1;absoluteArcSize=1;arcSize=14;strokeWidth=2;fontSize=10;fillColor=#FFFFFF;container=0;" vertex="1" parent="1">
          <mxGeometry x="-557" y="460" width="110" height="40" as="geometry" />
        </mxCell>
        <mxCell id="FrllIYIqwDFJwszf7kwl-16" value="" style="endArrow=classic;html=1;rounded=0;shadow=0;sketch=0;fontSize=10;entryX=0.5;entryY=0;entryDx=0;entryDy=0;exitX=0.5;exitY=1;exitDx=0;exitDy=0;" edge="1" parent="1" source="FrllIYIqwDFJwszf7kwl-29" target="FrllIYIqwDFJwszf7kwl-15">
          <mxGeometry width="50" height="50" relative="1" as="geometry">
            <mxPoint x="-502" y="370" as="sourcePoint" />
            <mxPoint x="-307" y="280" as="targetPoint" />
          </mxGeometry>
        </mxCell>
        <mxCell id="FrllIYIqwDFJwszf7kwl-17" value="" style="endArrow=classic;html=1;rounded=0;shadow=0;sketch=0;fontSize=10;entryX=0.5;entryY=0;entryDx=0;entryDy=0;exitX=0.5;exitY=1;exitDx=0;exitDy=0;" edge="1" parent="1" source="FrllIYIqwDFJwszf7kwl-29" target="FrllIYIqwDFJwszf7kwl-14">
          <mxGeometry width="50" height="50" relative="1" as="geometry">
            <mxPoint x="-497" y="370" as="sourcePoint" />
            <mxPoint x="-217" y="340" as="targetPoint" />
          </mxGeometry>
        </mxCell>
        <mxCell id="FrllIYIqwDFJwszf7kwl-19" style="edgeStyle=orthogonalEdgeStyle;rounded=0;sketch=0;orthogonalLoop=1;jettySize=auto;html=1;entryX=0.5;entryY=0;entryDx=0;entryDy=0;shadow=0;fontSize=10;endArrow=classic;endFill=1;exitX=0;exitY=0.5;exitDx=0;exitDy=0;exitPerimeter=0;" edge="1" parent="1" source="FrllIYIqwDFJwszf7kwl-54" target="FrllIYIqwDFJwszf7kwl-33">
          <mxGeometry relative="1" as="geometry">
            <Array as="points">
              <mxPoint x="-780" y="328" />
              <mxPoint x="-780" y="550" />
              <mxPoint x="-637" y="550" />
            </Array>
            <mxPoint x="-712" y="230" as="sourcePoint" />
            <mxPoint x="-687" y="560" as="targetPoint" />
          </mxGeometry>
        </mxCell>
        <mxCell id="FrllIYIqwDFJwszf7kwl-20" style="edgeStyle=orthogonalEdgeStyle;rounded=0;sketch=0;orthogonalLoop=1;jettySize=auto;html=1;entryX=0.5;entryY=0;entryDx=0;entryDy=0;shadow=0;fontSize=10;endArrow=classic;endFill=1;exitX=0.5;exitY=1;exitDx=0;exitDy=0;" edge="1" parent="1" source="FrllIYIqwDFJwszf7kwl-15" target="FrllIYIqwDFJwszf7kwl-33">
          <mxGeometry relative="1" as="geometry">
            <mxPoint x="-577" y="560" as="targetPoint" />
            <Array as="points">
              <mxPoint x="-502" y="550" />
              <mxPoint x="-637" y="550" />
            </Array>
          </mxGeometry>
        </mxCell>
        <mxCell id="FrllIYIqwDFJwszf7kwl-21" value="Upload certification file to attachment" style="whiteSpace=wrap;html=1;fontSize=10;fillColor=#FFFFFF;rounded=1;arcSize=14;strokeWidth=2;container=0;" vertex="1" parent="1">
          <mxGeometry x="-147" y="707" width="110" height="40" as="geometry" />
        </mxCell>
        <mxCell id="FrllIYIqwDFJwszf7kwl-22" style="edgeStyle=orthogonalEdgeStyle;rounded=0;sketch=0;orthogonalLoop=1;jettySize=auto;html=1;shadow=0;fontSize=10;endArrow=classic;endFill=1;exitX=1;exitY=0.5;exitDx=0;exitDy=0;exitPerimeter=0;" edge="1" parent="1" source="FrllIYIqwDFJwszf7kwl-23" target="FrllIYIqwDFJwszf7kwl-21">
          <mxGeometry relative="1" as="geometry">
            <mxPoint x="-92" y="585" as="sourcePoint" />
          </mxGeometry>
        </mxCell>
        <mxCell id="FrllIYIqwDFJwszf7kwl-23" value="Find any certification &lt;br&gt;belongs to current user in Certification Service" style="strokeWidth=2;html=1;shape=mxgraph.flowchart.decision;whiteSpace=wrap;fontSize=10;container=0;" vertex="1" parent="1">
          <mxGeometry x="-370" y="570" width="150" height="80" as="geometry" />
        </mxCell>
        <mxCell id="FrllIYIqwDFJwszf7kwl-24" style="edgeStyle=orthogonalEdgeStyle;rounded=0;sketch=0;orthogonalLoop=1;jettySize=auto;html=1;entryX=0.5;entryY=0;entryDx=0;entryDy=0;shadow=0;fontSize=10;endArrow=classic;endFill=1;entryPerimeter=0;" edge="1" parent="1" source="FrllIYIqwDFJwszf7kwl-14" target="FrllIYIqwDFJwszf7kwl-23">
          <mxGeometry relative="1" as="geometry">
            <mxPoint x="-272" y="490" as="targetPoint" />
          </mxGeometry>
        </mxCell>
        <mxCell id="FrllIYIqwDFJwszf7kwl-25" value="Update file path for this certification instance" style="whiteSpace=wrap;html=1;fontSize=10;fillColor=#FFFFFF;rounded=1;arcSize=14;strokeWidth=2;container=0;" vertex="1" parent="1">
          <mxGeometry x="-147" y="778" width="110" height="40" as="geometry" />
        </mxCell>
        <mxCell id="FrllIYIqwDFJwszf7kwl-26" style="edgeStyle=orthogonalEdgeStyle;rounded=0;sketch=0;orthogonalLoop=1;jettySize=auto;html=1;entryX=0.5;entryY=0;entryDx=0;entryDy=0;shadow=0;fontSize=10;endArrow=classic;endFill=1;" edge="1" parent="1" source="FrllIYIqwDFJwszf7kwl-21" target="FrllIYIqwDFJwszf7kwl-25">
          <mxGeometry relative="1" as="geometry" />
        </mxCell>
        <mxCell id="FrllIYIqwDFJwszf7kwl-29" value="" style="rounded=0;whiteSpace=wrap;html=1;fontSize=12;fillColor=#000000;container=0;" vertex="1" parent="1">
          <mxGeometry x="-557" y="390" width="110" height="5" as="geometry" />
        </mxCell>
        <mxCell id="FrllIYIqwDFJwszf7kwl-30" value="" style="verticalLabelPosition=bottom;verticalAlign=top;html=1;shape=mxgraph.flowchart.on-page_reference;fontSize=10;container=0;" vertex="1" parent="1">
          <mxGeometry x="-257" y="848" width="30" height="30" as="geometry" />
        </mxCell>
        <mxCell id="FrllIYIqwDFJwszf7kwl-31" style="edgeStyle=orthogonalEdgeStyle;rounded=0;sketch=0;orthogonalLoop=1;jettySize=auto;html=1;entryX=0;entryY=0.5;entryDx=0;entryDy=0;entryPerimeter=0;shadow=0;fontSize=10;endArrow=classic;endFill=1;exitX=0;exitY=0.5;exitDx=0;exitDy=0;exitPerimeter=0;" edge="1" parent="1" source="FrllIYIqwDFJwszf7kwl-23" target="FrllIYIqwDFJwszf7kwl-30">
          <mxGeometry relative="1" as="geometry">
            <Array as="points">
              <mxPoint x="-410" y="610" />
              <mxPoint x="-410" y="863" />
            </Array>
          </mxGeometry>
        </mxCell>
        <mxCell id="FrllIYIqwDFJwszf7kwl-32" value="" style="verticalLabelPosition=bottom;verticalAlign=top;html=1;shape=mxgraph.flowchart.on-page_reference;fontSize=10;fillColor=#000000;container=0;" vertex="1" parent="1">
          <mxGeometry x="-252" y="853" width="20" height="20" as="geometry" />
        </mxCell>
        <mxCell id="FrllIYIqwDFJwszf7kwl-33" value="Return attachment id" style="rounded=1;whiteSpace=wrap;html=1;absoluteArcSize=1;arcSize=14;strokeWidth=2;fontSize=10;fillColor=#FFFFFF;container=0;" vertex="1" parent="1">
          <mxGeometry x="-692" y="585" width="110" height="50" as="geometry" />
        </mxCell>
        <mxCell id="FrllIYIqwDFJwszf7kwl-34" style="edgeStyle=orthogonalEdgeStyle;rounded=0;sketch=0;orthogonalLoop=1;jettySize=auto;html=1;entryX=1;entryY=0.5;entryDx=0;entryDy=0;entryPerimeter=0;shadow=0;fontSize=10;endArrow=classic;endFill=1;exitX=0.5;exitY=1;exitDx=0;exitDy=0;" edge="1" parent="1" source="FrllIYIqwDFJwszf7kwl-25" target="FrllIYIqwDFJwszf7kwl-30">
          <mxGeometry relative="1" as="geometry" />
        </mxCell>
        <mxCell id="FrllIYIqwDFJwszf7kwl-40" style="edgeStyle=none;rounded=0;orthogonalLoop=1;jettySize=auto;html=1;entryX=0.5;entryY=0;entryDx=0;entryDy=0;entryPerimeter=0;fontSize=10;endArrow=classic;endFill=1;" edge="1" parent="1" source="FrllIYIqwDFJwszf7kwl-33" target="FrllIYIqwDFJwszf7kwl-36">
          <mxGeometry relative="1" as="geometry">
            <mxPoint x="-632" y="800" as="targetPoint" />
          </mxGeometry>
        </mxCell>
        <mxCell id="FrllIYIqwDFJwszf7kwl-54" value="&lt;span style=&quot;font-size: 10px;&quot;&gt;Has source &lt;br&gt;generation task&lt;/span&gt;" style="strokeWidth=2;html=1;shape=mxgraph.flowchart.decision;whiteSpace=wrap;fontSize=12;fillColor=#FFFFFF;container=0;" vertex="1" parent="1">
          <mxGeometry x="-712" y="296" width="150" height="64" as="geometry" />
        </mxCell>
        <mxCell id="FrllIYIqwDFJwszf7kwl-58" style="edgeStyle=orthogonalEdgeStyle;rounded=0;orthogonalLoop=1;jettySize=auto;html=1;entryX=0.5;entryY=0;entryDx=0;entryDy=0;entryPerimeter=0;" edge="1" parent="1" source="FrllIYIqwDFJwszf7kwl-59" target="FrllIYIqwDFJwszf7kwl-54">
          <mxGeometry relative="1" as="geometry" />
        </mxCell>
        <mxCell id="FrllIYIqwDFJwszf7kwl-59" value="save record into db" style="whiteSpace=wrap;html=1;fontSize=10;fillColor=#FFFFFF;rounded=1;arcSize=14;strokeWidth=2;container=0;" vertex="1" parent="1">
          <mxGeometry x="-692" y="230" width="110" height="40" as="geometry" />
        </mxCell>
        <mxCell id="FrllIYIqwDFJwszf7kwl-60" style="edgeStyle=orthogonalEdgeStyle;rounded=0;orthogonalLoop=1;jettySize=auto;html=1;entryX=0.5;entryY=0;entryDx=0;entryDy=0;exitX=1;exitY=0.5;exitDx=0;exitDy=0;exitPerimeter=0;" edge="1" parent="1" source="FrllIYIqwDFJwszf7kwl-54" target="FrllIYIqwDFJwszf7kwl-29">
          <mxGeometry relative="1" as="geometry">
            <mxPoint x="-502" y="420" as="sourcePoint" />
          </mxGeometry>
        </mxCell>
        <mxCell id="FrllIYIqwDFJwszf7kwl-62" value="" style="group" vertex="1" connectable="0" parent="1">
          <mxGeometry x="690" y="680" width="30" height="30" as="geometry" />
        </mxCell>
        <mxCell id="FrllIYIqwDFJwszf7kwl-56" value="" style="verticalLabelPosition=bottom;verticalAlign=top;html=1;shape=mxgraph.flowchart.on-page_reference;fontSize=10;container=0;" vertex="1" parent="FrllIYIqwDFJwszf7kwl-62">
          <mxGeometry width="30" height="30" as="geometry" />
        </mxCell>
        <mxCell id="FrllIYIqwDFJwszf7kwl-57" value="" style="verticalLabelPosition=bottom;verticalAlign=top;html=1;shape=mxgraph.flowchart.on-page_reference;fontSize=10;fillColor=#000000;container=0;" vertex="1" parent="FrllIYIqwDFJwszf7kwl-62">
          <mxGeometry x="5" y="5" width="20" height="20" as="geometry" />
        </mxCell>
        <mxCell id="FrllIYIqwDFJwszf7kwl-64" value="" style="group" vertex="1" connectable="0" parent="1">
          <mxGeometry x="-652" y="688" width="30" height="30" as="geometry" />
        </mxCell>
        <mxCell id="FrllIYIqwDFJwszf7kwl-36" value="" style="verticalLabelPosition=bottom;verticalAlign=top;html=1;shape=mxgraph.flowchart.on-page_reference;fontSize=10;container=0;" vertex="1" parent="FrllIYIqwDFJwszf7kwl-64">
          <mxGeometry width="30" height="30" as="geometry" />
        </mxCell>
        <mxCell id="FrllIYIqwDFJwszf7kwl-37" value="" style="verticalLabelPosition=bottom;verticalAlign=top;html=1;shape=mxgraph.flowchart.on-page_reference;fontSize=10;fillColor=#000000;container=0;" vertex="1" parent="FrllIYIqwDFJwszf7kwl-64">
          <mxGeometry x="5" y="5" width="20" height="20" as="geometry" />
        </mxCell>
      </root>
    </mxGraphModel>
  </diagram>
  <diagram id="9PoukXYQM1B9XfUWb7g6" name="Page-2">
    <mxGraphModel dx="2074" dy="1131" grid="1" gridSize="10" guides="1" tooltips="1" connect="1" arrows="1" fold="1" page="1" pageScale="1" pageWidth="827" pageHeight="1169" math="0" shadow="0">
      <root>
        <mxCell id="0" />
        <mxCell id="1" parent="0" />
        <mxCell id="ZPP--fspVP2nnXT95nKf-1" value="" style="group" vertex="1" connectable="0" parent="1">
          <mxGeometry width="580" height="430" as="geometry" />
        </mxCell>
        <mxCell id="ZPP--fspVP2nnXT95nKf-2" value="" style="rounded=0;whiteSpace=wrap;html=1;" vertex="1" parent="ZPP--fspVP2nnXT95nKf-1">
          <mxGeometry y="120" width="360" height="310" as="geometry" />
        </mxCell>
        <mxCell id="ZPP--fspVP2nnXT95nKf-3" value="&lt;font style=&quot;font-size: 14px;&quot;&gt;File Fortification Service&lt;/font&gt;" style="whiteSpace=wrap;html=1;shadow=1;fontSize=18;fillColor=#f5f5f5;strokeColor=#666666;" vertex="1" parent="ZPP--fspVP2nnXT95nKf-1">
          <mxGeometry x="410" y="150" width="170" height="60" as="geometry" />
        </mxCell>
        <mxCell id="ZPP--fspVP2nnXT95nKf-4" value="User" style="shape=umlActor;verticalLabelPosition=bottom;verticalAlign=top;html=1;outlineConnect=0;" vertex="1" parent="ZPP--fspVP2nnXT95nKf-1">
          <mxGeometry x="180" width="30" height="60" as="geometry" />
        </mxCell>
        <mxCell id="ZPP--fspVP2nnXT95nKf-5" value="" style="group" vertex="1" connectable="0" parent="ZPP--fspVP2nnXT95nKf-1">
          <mxGeometry x="71" y="160" width="218" height="110" as="geometry" />
        </mxCell>
        <mxCell id="ZPP--fspVP2nnXT95nKf-6" value="" style="whiteSpace=wrap;html=1;shadow=1;fontSize=18;fillColor=#f5f5f5;strokeColor=#666666;" vertex="1" parent="ZPP--fspVP2nnXT95nKf-5">
          <mxGeometry width="210" height="110" as="geometry" />
        </mxCell>
        <mxCell id="ZPP--fspVP2nnXT95nKf-7" value="&lt;font style=&quot;font-size: 14px;&quot;&gt;Attachment Service&lt;/font&gt;" style="text;html=1;align=center;verticalAlign=middle;resizable=0;points=[];autosize=1;strokeColor=none;fillColor=none;" vertex="1" parent="ZPP--fspVP2nnXT95nKf-5">
          <mxGeometry width="140" height="30" as="geometry" />
        </mxCell>
        <mxCell id="ZPP--fspVP2nnXT95nKf-8" style="edgeStyle=orthogonalEdgeStyle;rounded=0;orthogonalLoop=1;jettySize=auto;html=1;entryX=0.886;entryY=0;entryDx=0;entryDy=0;entryPerimeter=0;fontSize=14;" edge="1" parent="ZPP--fspVP2nnXT95nKf-1" source="ZPP--fspVP2nnXT95nKf-4" target="ZPP--fspVP2nnXT95nKf-7">
          <mxGeometry relative="1" as="geometry" />
        </mxCell>
        <mxCell id="ZPP--fspVP2nnXT95nKf-9" value="&lt;font style=&quot;font-size: 14px;&quot;&gt;NFS Service&lt;/font&gt;" style="whiteSpace=wrap;html=1;shadow=1;fontSize=18;fillColor=#f5f5f5;strokeColor=#666666;" vertex="1" parent="ZPP--fspVP2nnXT95nKf-1">
          <mxGeometry x="410" y="230" width="170" height="60" as="geometry" />
        </mxCell>
        <mxCell id="ZPP--fspVP2nnXT95nKf-10" value="Seller-app" style="text;html=1;align=center;verticalAlign=middle;resizable=0;points=[];autosize=1;strokeColor=none;fillColor=none;fontSize=14;" vertex="1" parent="ZPP--fspVP2nnXT95nKf-1">
          <mxGeometry y="120" width="90" height="30" as="geometry" />
        </mxCell>
        <mxCell id="ZPP--fspVP2nnXT95nKf-11" style="edgeStyle=orthogonalEdgeStyle;rounded=0;orthogonalLoop=1;jettySize=auto;html=1;exitX=1;exitY=0.25;exitDx=0;exitDy=0;fontSize=14;" edge="1" parent="ZPP--fspVP2nnXT95nKf-1" source="ZPP--fspVP2nnXT95nKf-6">
          <mxGeometry relative="1" as="geometry">
            <mxPoint x="410" y="188" as="targetPoint" />
          </mxGeometry>
        </mxCell>
        <mxCell id="ZPP--fspVP2nnXT95nKf-12" style="edgeStyle=orthogonalEdgeStyle;rounded=0;orthogonalLoop=1;jettySize=auto;html=1;exitX=1;exitY=0.75;exitDx=0;exitDy=0;fontSize=14;" edge="1" parent="ZPP--fspVP2nnXT95nKf-1" source="ZPP--fspVP2nnXT95nKf-6">
          <mxGeometry relative="1" as="geometry">
            <mxPoint x="410" y="243" as="targetPoint" />
          </mxGeometry>
        </mxCell>
        <mxCell id="ZPP--fspVP2nnXT95nKf-13" value="" style="group" vertex="1" connectable="0" parent="ZPP--fspVP2nnXT95nKf-1">
          <mxGeometry x="101" y="330" width="170" height="80" as="geometry" />
        </mxCell>
        <mxCell id="ZPP--fspVP2nnXT95nKf-14" value="" style="whiteSpace=wrap;html=1;shadow=1;fontSize=18;fillColor=#f5f5f5;strokeColor=#666666;" vertex="1" parent="ZPP--fspVP2nnXT95nKf-13">
          <mxGeometry width="150" height="60" as="geometry" />
        </mxCell>
        <mxCell id="ZPP--fspVP2nnXT95nKf-15" value="" style="whiteSpace=wrap;html=1;shadow=1;fontSize=18;fillColor=#f5f5f5;strokeColor=#666666;" vertex="1" parent="ZPP--fspVP2nnXT95nKf-13">
          <mxGeometry x="10" y="10" width="150" height="60" as="geometry" />
        </mxCell>
        <mxCell id="ZPP--fspVP2nnXT95nKf-16" value="&lt;font style=&quot;font-size: 14px;&quot;&gt;Consumer client&lt;/font&gt;" style="whiteSpace=wrap;html=1;shadow=1;fontSize=18;fillColor=#f5f5f5;strokeColor=#666666;" vertex="1" parent="ZPP--fspVP2nnXT95nKf-13">
          <mxGeometry x="20" y="20" width="150" height="60" as="geometry" />
        </mxCell>
        <mxCell id="ZPP--fspVP2nnXT95nKf-17" style="edgeStyle=orthogonalEdgeStyle;rounded=0;orthogonalLoop=1;jettySize=auto;html=1;fontSize=14;" edge="1" parent="ZPP--fspVP2nnXT95nKf-1">
          <mxGeometry relative="1" as="geometry">
            <mxPoint x="140" y="270" as="sourcePoint" />
            <mxPoint x="140" y="330" as="targetPoint" />
            <Array as="points">
              <mxPoint x="140" y="270" />
            </Array>
          </mxGeometry>
        </mxCell>
        <mxCell id="ZPP--fspVP2nnXT95nKf-18" style="edgeStyle=orthogonalEdgeStyle;rounded=0;orthogonalLoop=1;jettySize=auto;html=1;fontSize=14;" edge="1" parent="ZPP--fspVP2nnXT95nKf-1">
          <mxGeometry relative="1" as="geometry">
            <mxPoint x="179.52" y="270" as="sourcePoint" />
            <mxPoint x="179.52" y="330" as="targetPoint" />
            <Array as="points">
              <mxPoint x="179.52" y="270" />
            </Array>
          </mxGeometry>
        </mxCell>
        <mxCell id="ZPP--fspVP2nnXT95nKf-19" style="edgeStyle=orthogonalEdgeStyle;rounded=0;orthogonalLoop=1;jettySize=auto;html=1;fontSize=14;" edge="1" parent="ZPP--fspVP2nnXT95nKf-1">
          <mxGeometry relative="1" as="geometry">
            <mxPoint x="160" y="270" as="sourcePoint" />
            <mxPoint x="160" y="330" as="targetPoint" />
            <Array as="points">
              <mxPoint x="160" y="270" />
            </Array>
          </mxGeometry>
        </mxCell>
        <mxCell id="ZPP--fspVP2nnXT95nKf-20" style="edgeStyle=orthogonalEdgeStyle;rounded=0;orthogonalLoop=1;jettySize=auto;html=1;fontSize=14;startArrow=classic;startFill=1;endArrow=none;endFill=0;" edge="1" parent="ZPP--fspVP2nnXT95nKf-1">
          <mxGeometry relative="1" as="geometry">
            <mxPoint x="199.99999999999997" y="270" as="sourcePoint" />
            <mxPoint x="199.99999999999997" y="330" as="targetPoint" />
            <Array as="points">
              <mxPoint x="200" y="270" />
            </Array>
          </mxGeometry>
        </mxCell>
        <mxCell id="ZPP--fspVP2nnXT95nKf-21" style="edgeStyle=orthogonalEdgeStyle;rounded=0;orthogonalLoop=1;jettySize=auto;html=1;fontSize=14;startArrow=classic;startFill=1;endArrow=none;endFill=0;" edge="1" parent="ZPP--fspVP2nnXT95nKf-1">
          <mxGeometry relative="1" as="geometry">
            <mxPoint x="220" y="270" as="sourcePoint" />
            <mxPoint x="220" y="330" as="targetPoint" />
            <Array as="points">
              <mxPoint x="220" y="270" />
            </Array>
          </mxGeometry>
        </mxCell>
        <mxCell id="ZPP--fspVP2nnXT95nKf-22" style="edgeStyle=orthogonalEdgeStyle;rounded=0;orthogonalLoop=1;jettySize=auto;html=1;fontSize=14;startArrow=classic;startFill=1;endArrow=none;endFill=0;" edge="1" parent="ZPP--fspVP2nnXT95nKf-1">
          <mxGeometry relative="1" as="geometry">
            <mxPoint x="240" y="270" as="sourcePoint" />
            <mxPoint x="240" y="330" as="targetPoint" />
            <Array as="points">
              <mxPoint x="240" y="270" />
            </Array>
          </mxGeometry>
        </mxCell>
      </root>
    </mxGraphModel>
  </diagram>
  <diagram id="Q0f0HRyTbAiZJ6MqYHqV" name="Page-3">
    <mxGraphModel dx="2074" dy="1131" grid="1" gridSize="10" guides="1" tooltips="1" connect="1" arrows="1" fold="1" page="1" pageScale="1" pageWidth="827" pageHeight="1169" math="0" shadow="0">
      <root>
        <mxCell id="0" />
        <mxCell id="1" parent="0" />
        <mxCell id="b12ThsgfgngZto3ahTFI-1" value="" style="rounded=0;whiteSpace=wrap;html=1;" vertex="1" parent="1">
          <mxGeometry width="1520" height="590" as="geometry" />
        </mxCell>
        <mxCell id="b12ThsgfgngZto3ahTFI-2" value="ClientPermissionValidationProcessorFactory" style="swimlane;fontStyle=1;align=center;verticalAlign=top;childLayout=stackLayout;horizontal=1;startSize=26;horizontalStack=0;resizeParent=1;resizeParentMax=0;resizeLast=0;collapsible=1;marginBottom=0;whiteSpace=wrap;html=1;" vertex="1" parent="1">
          <mxGeometry x="570" y="20" width="490" height="86" as="geometry" />
        </mxCell>
        <mxCell id="b12ThsgfgngZto3ahTFI-3" value="+ processors: Map&amp;lt;String,&amp;nbsp;ClientPermissionValidationProcessor&amp;gt;" style="text;strokeColor=none;fillColor=none;align=left;verticalAlign=top;spacingLeft=4;spacingRight=4;overflow=hidden;rotatable=0;points=[[0,0.5],[1,0.5]];portConstraint=eastwest;whiteSpace=wrap;html=1;" vertex="1" parent="b12ThsgfgngZto3ahTFI-2">
          <mxGeometry y="26" width="490" height="26" as="geometry" />
        </mxCell>
        <mxCell id="b12ThsgfgngZto3ahTFI-4" value="" style="line;strokeWidth=1;fillColor=none;align=left;verticalAlign=middle;spacingTop=-1;spacingLeft=3;spacingRight=3;rotatable=0;labelPosition=right;points=[];portConstraint=eastwest;strokeColor=inherit;" vertex="1" parent="b12ThsgfgngZto3ahTFI-2">
          <mxGeometry y="52" width="490" height="8" as="geometry" />
        </mxCell>
        <mxCell id="b12ThsgfgngZto3ahTFI-5" value="+ getPermissionValidationProcessor(String clientId):&amp;nbsp;ClientPermissionValidationProcessor" style="text;strokeColor=none;fillColor=none;align=left;verticalAlign=top;spacingLeft=4;spacingRight=4;overflow=hidden;rotatable=0;points=[[0,0.5],[1,0.5]];portConstraint=eastwest;whiteSpace=wrap;html=1;" vertex="1" parent="b12ThsgfgngZto3ahTFI-2">
          <mxGeometry y="60" width="490" height="26" as="geometry" />
        </mxCell>
        <mxCell id="b12ThsgfgngZto3ahTFI-6" value="DefaultClientPermissionValidationProcessor" style="swimlane;fontStyle=1;align=center;verticalAlign=top;childLayout=stackLayout;horizontal=1;startSize=26;horizontalStack=0;resizeParent=1;resizeParentMax=0;resizeLast=0;collapsible=1;marginBottom=0;whiteSpace=wrap;html=1;" vertex="1" parent="1">
          <mxGeometry x="560" y="210" width="470" height="100" as="geometry" />
        </mxCell>
        <mxCell id="b12ThsgfgngZto3ahTFI-7" value="+ property:&amp;nbsp;AttachmentServiceProperty" style="text;strokeColor=none;fillColor=none;align=left;verticalAlign=top;spacingLeft=4;spacingRight=4;overflow=hidden;rotatable=0;points=[[0,0.5],[1,0.5]];portConstraint=eastwest;whiteSpace=wrap;html=1;" vertex="1" parent="b12ThsgfgngZto3ahTFI-6">
          <mxGeometry y="26" width="470" height="26" as="geometry" />
        </mxCell>
        <mxCell id="b12ThsgfgngZto3ahTFI-8" value="" style="line;strokeWidth=1;fillColor=none;align=left;verticalAlign=middle;spacingTop=-1;spacingLeft=3;spacingRight=3;rotatable=0;labelPosition=right;points=[];portConstraint=eastwest;strokeColor=inherit;" vertex="1" parent="b12ThsgfgngZto3ahTFI-6">
          <mxGeometry y="52" width="470" height="8" as="geometry" />
        </mxCell>
        <mxCell id="b12ThsgfgngZto3ahTFI-9" value="+ register(String clientId,DefaultClientPermissionValidationProcessor processor): void&lt;br&gt;+ isPermissionValid(): void" style="text;strokeColor=none;fillColor=none;align=left;verticalAlign=top;spacingLeft=4;spacingRight=4;overflow=hidden;rotatable=0;points=[[0,0.5],[1,0.5]];portConstraint=eastwest;whiteSpace=wrap;html=1;" vertex="1" parent="b12ThsgfgngZto3ahTFI-6">
          <mxGeometry y="60" width="470" height="40" as="geometry" />
        </mxCell>
        <mxCell id="b12ThsgfgngZto3ahTFI-10" value="AssessmentPermissionValidationProcessor" style="swimlane;fontStyle=1;align=center;verticalAlign=top;childLayout=stackLayout;horizontal=1;startSize=26;horizontalStack=0;resizeParent=1;resizeParentMax=0;resizeLast=0;collapsible=1;marginBottom=0;whiteSpace=wrap;html=1;" vertex="1" parent="1">
          <mxGeometry x="210" y="440" width="330" height="86" as="geometry" />
        </mxCell>
        <mxCell id="b12ThsgfgngZto3ahTFI-11" value="+ property:&amp;nbsp;AttachmentServiceConsumerClientProperty" style="text;strokeColor=none;fillColor=none;align=left;verticalAlign=top;spacingLeft=4;spacingRight=4;overflow=hidden;rotatable=0;points=[[0,0.5],[1,0.5]];portConstraint=eastwest;whiteSpace=wrap;html=1;" vertex="1" parent="b12ThsgfgngZto3ahTFI-10">
          <mxGeometry y="26" width="330" height="26" as="geometry" />
        </mxCell>
        <mxCell id="b12ThsgfgngZto3ahTFI-12" value="" style="line;strokeWidth=1;fillColor=none;align=left;verticalAlign=middle;spacingTop=-1;spacingLeft=3;spacingRight=3;rotatable=0;labelPosition=right;points=[];portConstraint=eastwest;strokeColor=inherit;" vertex="1" parent="b12ThsgfgngZto3ahTFI-10">
          <mxGeometry y="52" width="330" height="8" as="geometry" />
        </mxCell>
        <mxCell id="b12ThsgfgngZto3ahTFI-13" value="+ isPermissionValid(): void" style="text;strokeColor=none;fillColor=none;align=left;verticalAlign=top;spacingLeft=4;spacingRight=4;overflow=hidden;rotatable=0;points=[[0,0.5],[1,0.5]];portConstraint=eastwest;whiteSpace=wrap;html=1;" vertex="1" parent="b12ThsgfgngZto3ahTFI-10">
          <mxGeometry y="60" width="330" height="26" as="geometry" />
        </mxCell>
        <mxCell id="b12ThsgfgngZto3ahTFI-14" value="CertificationPermissionValidationProcessor" style="swimlane;fontStyle=1;align=center;verticalAlign=top;childLayout=stackLayout;horizontal=1;startSize=26;horizontalStack=0;resizeParent=1;resizeParentMax=0;resizeLast=0;collapsible=1;marginBottom=0;whiteSpace=wrap;html=1;" vertex="1" parent="1">
          <mxGeometry x="1060" y="440" width="330" height="86" as="geometry" />
        </mxCell>
        <mxCell id="b12ThsgfgngZto3ahTFI-15" value="+ property:&amp;nbsp;AttachmentServiceConsumerClientProperty" style="text;strokeColor=none;fillColor=none;align=left;verticalAlign=top;spacingLeft=4;spacingRight=4;overflow=hidden;rotatable=0;points=[[0,0.5],[1,0.5]];portConstraint=eastwest;whiteSpace=wrap;html=1;" vertex="1" parent="b12ThsgfgngZto3ahTFI-14">
          <mxGeometry y="26" width="330" height="26" as="geometry" />
        </mxCell>
        <mxCell id="b12ThsgfgngZto3ahTFI-16" value="" style="line;strokeWidth=1;fillColor=none;align=left;verticalAlign=middle;spacingTop=-1;spacingLeft=3;spacingRight=3;rotatable=0;labelPosition=right;points=[];portConstraint=eastwest;strokeColor=inherit;" vertex="1" parent="b12ThsgfgngZto3ahTFI-14">
          <mxGeometry y="52" width="330" height="8" as="geometry" />
        </mxCell>
        <mxCell id="b12ThsgfgngZto3ahTFI-17" value="+ isPermissionValid(): void" style="text;strokeColor=none;fillColor=none;align=left;verticalAlign=top;spacingLeft=4;spacingRight=4;overflow=hidden;rotatable=0;points=[[0,0.5],[1,0.5]];portConstraint=eastwest;whiteSpace=wrap;html=1;" vertex="1" parent="b12ThsgfgngZto3ahTFI-14">
          <mxGeometry y="60" width="330" height="26" as="geometry" />
        </mxCell>
        <mxCell id="b12ThsgfgngZto3ahTFI-18" value="AnnocementPermissionValidationProcessor" style="swimlane;fontStyle=1;align=center;verticalAlign=top;childLayout=stackLayout;horizontal=1;startSize=26;horizontalStack=0;resizeParent=1;resizeParentMax=0;resizeLast=0;collapsible=1;marginBottom=0;whiteSpace=wrap;html=1;" vertex="1" parent="1">
          <mxGeometry x="630" y="440" width="330" height="86" as="geometry" />
        </mxCell>
        <mxCell id="b12ThsgfgngZto3ahTFI-19" value="+ property:&amp;nbsp;AttachmentServiceConsumerClientProperty" style="text;strokeColor=none;fillColor=none;align=left;verticalAlign=top;spacingLeft=4;spacingRight=4;overflow=hidden;rotatable=0;points=[[0,0.5],[1,0.5]];portConstraint=eastwest;whiteSpace=wrap;html=1;" vertex="1" parent="b12ThsgfgngZto3ahTFI-18">
          <mxGeometry y="26" width="330" height="26" as="geometry" />
        </mxCell>
        <mxCell id="b12ThsgfgngZto3ahTFI-20" value="" style="line;strokeWidth=1;fillColor=none;align=left;verticalAlign=middle;spacingTop=-1;spacingLeft=3;spacingRight=3;rotatable=0;labelPosition=right;points=[];portConstraint=eastwest;strokeColor=inherit;" vertex="1" parent="b12ThsgfgngZto3ahTFI-18">
          <mxGeometry y="52" width="330" height="8" as="geometry" />
        </mxCell>
        <mxCell id="b12ThsgfgngZto3ahTFI-21" value="+ isPermissionValid(): void" style="text;strokeColor=none;fillColor=none;align=left;verticalAlign=top;spacingLeft=4;spacingRight=4;overflow=hidden;rotatable=0;points=[[0,0.5],[1,0.5]];portConstraint=eastwest;whiteSpace=wrap;html=1;" vertex="1" parent="b12ThsgfgngZto3ahTFI-18">
          <mxGeometry y="60" width="330" height="26" as="geometry" />
        </mxCell>
        <mxCell id="b12ThsgfgngZto3ahTFI-22" value="AttachmentPermissionValidationService" style="swimlane;fontStyle=1;align=center;verticalAlign=top;childLayout=stackLayout;horizontal=1;startSize=26;horizontalStack=0;resizeParent=1;resizeParentMax=0;resizeLast=0;collapsible=1;marginBottom=0;whiteSpace=wrap;html=1;" vertex="1" parent="1">
          <mxGeometry x="60" y="20" width="410" height="86" as="geometry" />
        </mxCell>
        <mxCell id="b12ThsgfgngZto3ahTFI-23" value="+ factory:&amp;nbsp;ClientPermissionValidationProcessorFactory" style="text;strokeColor=none;fillColor=none;align=left;verticalAlign=top;spacingLeft=4;spacingRight=4;overflow=hidden;rotatable=0;points=[[0,0.5],[1,0.5]];portConstraint=eastwest;whiteSpace=wrap;html=1;" vertex="1" parent="b12ThsgfgngZto3ahTFI-22">
          <mxGeometry y="26" width="410" height="26" as="geometry" />
        </mxCell>
        <mxCell id="b12ThsgfgngZto3ahTFI-24" value="" style="line;strokeWidth=1;fillColor=none;align=left;verticalAlign=middle;spacingTop=-1;spacingLeft=3;spacingRight=3;rotatable=0;labelPosition=right;points=[];portConstraint=eastwest;strokeColor=inherit;" vertex="1" parent="b12ThsgfgngZto3ahTFI-22">
          <mxGeometry y="52" width="410" height="8" as="geometry" />
        </mxCell>
        <mxCell id="b12ThsgfgngZto3ahTFI-25" value="+ validatePermission(String clientId,&amp;nbsp;AttachmentEntity&amp;nbsp;entity):&amp;nbsp;void" style="text;strokeColor=none;fillColor=none;align=left;verticalAlign=top;spacingLeft=4;spacingRight=4;overflow=hidden;rotatable=0;points=[[0,0.5],[1,0.5]];portConstraint=eastwest;whiteSpace=wrap;html=1;" vertex="1" parent="b12ThsgfgngZto3ahTFI-22">
          <mxGeometry y="60" width="410" height="26" as="geometry" />
        </mxCell>
        <mxCell id="b12ThsgfgngZto3ahTFI-26" value="&lt;pre data-mduml-processed=&quot;true&quot; style=&quot;background-color: rgb(255, 255, 255); font-size: 10.5pt;&quot;&gt;&lt;br&gt;&lt;/pre&gt;" style="text;html=1;align=center;verticalAlign=middle;resizable=0;points=[];autosize=1;strokeColor=none;fillColor=none;" vertex="1" parent="1">
          <mxGeometry x="165" y="181" width="20" height="60" as="geometry" />
        </mxCell>
        <mxCell id="b12ThsgfgngZto3ahTFI-27" value="&lt;pre style=&quot;border-color: var(--border-color); background-color: rgb(255, 255, 255); font-size: 10.5pt;&quot; data-mduml-processed=&quot;true&quot;&gt;&lt;font style=&quot;border-color: var(--border-color);&quot; face=&quot;Helvetica&quot;&gt;AttachmentServiceConsumerClientsProperty&lt;/font&gt;&lt;/pre&gt;" style="swimlane;fontStyle=0;childLayout=stackLayout;horizontal=1;startSize=26;fillColor=none;horizontalStack=0;resizeParent=1;resizeParentMax=0;resizeLast=0;collapsible=1;marginBottom=0;whiteSpace=wrap;html=1;" vertex="1" parent="1">
          <mxGeometry x="60" y="184" width="347" height="130" as="geometry" />
        </mxCell>
        <mxCell id="b12ThsgfgngZto3ahTFI-28" value="+&amp;nbsp;url: String" style="text;strokeColor=none;fillColor=none;align=left;verticalAlign=top;spacingLeft=4;spacingRight=4;overflow=hidden;rotatable=0;points=[[0,0.5],[1,0.5]];portConstraint=eastwest;whiteSpace=wrap;html=1;" vertex="1" parent="b12ThsgfgngZto3ahTFI-27">
          <mxGeometry y="26" width="347" height="26" as="geometry" />
        </mxCell>
        <mxCell id="b12ThsgfgngZto3ahTFI-29" value="+&amp;nbsp;path: String" style="text;strokeColor=none;fillColor=none;align=left;verticalAlign=top;spacingLeft=4;spacingRight=4;overflow=hidden;rotatable=0;points=[[0,0.5],[1,0.5]];portConstraint=eastwest;whiteSpace=wrap;html=1;" vertex="1" parent="b12ThsgfgngZto3ahTFI-27">
          <mxGeometry y="52" width="347" height="26" as="geometry" />
        </mxCell>
        <mxCell id="b12ThsgfgngZto3ahTFI-30" value="+&amp;nbsp;permissionParams: String" style="text;strokeColor=none;fillColor=none;align=left;verticalAlign=top;spacingLeft=4;spacingRight=4;overflow=hidden;rotatable=0;points=[[0,0.5],[1,0.5]];portConstraint=eastwest;whiteSpace=wrap;html=1;" vertex="1" parent="b12ThsgfgngZto3ahTFI-27">
          <mxGeometry y="78" width="347" height="26" as="geometry" />
        </mxCell>
        <mxCell id="b12ThsgfgngZto3ahTFI-31" value="+&amp;nbsp;permissionValidationEnabled:&amp;nbsp;Boolean" style="text;strokeColor=none;fillColor=none;align=left;verticalAlign=top;spacingLeft=4;spacingRight=4;overflow=hidden;rotatable=0;points=[[0,0.5],[1,0.5]];portConstraint=eastwest;whiteSpace=wrap;html=1;" vertex="1" parent="b12ThsgfgngZto3ahTFI-27">
          <mxGeometry y="104" width="347" height="26" as="geometry" />
        </mxCell>
        <mxCell id="b12ThsgfgngZto3ahTFI-32" value="&lt;pre data-mduml-processed=&quot;true&quot; style=&quot;background-color: rgb(255, 255, 255); font-size: 10.5pt;&quot;&gt;&lt;br&gt;&lt;/pre&gt;" style="text;html=1;align=center;verticalAlign=middle;resizable=0;points=[];autosize=1;strokeColor=none;fillColor=none;" vertex="1" parent="1">
          <mxGeometry x="250" y="140" width="20" height="60" as="geometry" />
        </mxCell>
        <mxCell id="b12ThsgfgngZto3ahTFI-33" value="..." style="text;html=1;align=center;verticalAlign=middle;resizable=0;points=[];autosize=1;strokeColor=none;fillColor=none;" vertex="1" parent="1">
          <mxGeometry x="1430" y="468" width="30" height="30" as="geometry" />
        </mxCell>
        <mxCell id="b12ThsgfgngZto3ahTFI-34" value="" style="endArrow=block;html=1;rounded=0;endFill=0;entryX=0.503;entryY=1.021;entryDx=0;entryDy=0;entryPerimeter=0;edgeStyle=orthogonalEdgeStyle;" edge="1" parent="1">
          <mxGeometry width="50" height="50" relative="1" as="geometry">
            <mxPoint x="369" y="440" as="sourcePoint" />
            <mxPoint x="795.3499999999999" y="310.84000000000015" as="targetPoint" />
            <Array as="points">
              <mxPoint x="369" y="370" />
              <mxPoint x="795" y="370" />
            </Array>
          </mxGeometry>
        </mxCell>
        <mxCell id="b12ThsgfgngZto3ahTFI-35" value="" style="endArrow=block;html=1;rounded=0;endFill=0;exitX=0.5;exitY=0;exitDx=0;exitDy=0;" edge="1" parent="1" source="b12ThsgfgngZto3ahTFI-18" target="b12ThsgfgngZto3ahTFI-9">
          <mxGeometry width="50" height="50" relative="1" as="geometry">
            <mxPoint x="370" y="450" as="sourcePoint" />
            <mxPoint x="738" y="320" as="targetPoint" />
          </mxGeometry>
        </mxCell>
        <mxCell id="b12ThsgfgngZto3ahTFI-36" value="" style="endArrow=block;html=1;rounded=0;endFill=0;exitX=0.5;exitY=0;exitDx=0;exitDy=0;edgeStyle=orthogonalEdgeStyle;" edge="1" parent="1">
          <mxGeometry width="50" height="50" relative="1" as="geometry">
            <mxPoint x="1240" y="440" as="sourcePoint" />
            <mxPoint x="795" y="310" as="targetPoint" />
            <Array as="points">
              <mxPoint x="1240" y="370" />
              <mxPoint x="795" y="370" />
            </Array>
          </mxGeometry>
        </mxCell>
        <mxCell id="b12ThsgfgngZto3ahTFI-37" style="edgeStyle=orthogonalEdgeStyle;rounded=0;orthogonalLoop=1;jettySize=auto;html=1;endArrow=open;endFill=0;dashed=1;" edge="1" parent="1" source="b12ThsgfgngZto3ahTFI-7" target="b12ThsgfgngZto3ahTFI-27">
          <mxGeometry relative="1" as="geometry" />
        </mxCell>
        <mxCell id="b12ThsgfgngZto3ahTFI-38" style="edgeStyle=orthogonalEdgeStyle;rounded=0;orthogonalLoop=1;jettySize=auto;html=1;endArrow=open;endFill=0;dashed=1;exitX=1;exitY=0.5;exitDx=0;exitDy=0;entryX=0;entryY=0.5;entryDx=0;entryDy=0;" edge="1" parent="1" source="b12ThsgfgngZto3ahTFI-23" target="b12ThsgfgngZto3ahTFI-3">
          <mxGeometry relative="1" as="geometry">
            <mxPoint x="583" y="184" as="sourcePoint" />
            <mxPoint x="430" y="184" as="targetPoint" />
          </mxGeometry>
        </mxCell>
        <mxCell id="b12ThsgfgngZto3ahTFI-39" style="edgeStyle=orthogonalEdgeStyle;rounded=0;orthogonalLoop=1;jettySize=auto;html=1;endArrow=open;endFill=0;dashed=1;exitX=0.458;exitY=1.026;exitDx=0;exitDy=0;exitPerimeter=0;" edge="1" parent="1" source="b12ThsgfgngZto3ahTFI-5" target="b12ThsgfgngZto3ahTFI-6">
          <mxGeometry relative="1" as="geometry">
            <mxPoint x="843" y="160" as="sourcePoint" />
            <mxPoint x="690" y="160" as="targetPoint" />
          </mxGeometry>
        </mxCell>
      </root>
    </mxGraphModel>
  </diagram>
  <diagram id="FyR6wPNhO07cMxh8oIva" name="Page-4">
    <mxGraphModel dx="2074" dy="1131" grid="1" gridSize="10" guides="1" tooltips="1" connect="1" arrows="1" fold="1" page="1" pageScale="1" pageWidth="827" pageHeight="1169" math="0" shadow="0">
      <root>
        <mxCell id="0" />
        <mxCell id="1" parent="0" />
        <mxCell id="WP6UlXpYxhxJMxgLsShk-1" value="" style="rounded=0;whiteSpace=wrap;html=1;" vertex="1" parent="1">
          <mxGeometry y="20" width="790" height="700" as="geometry" />
        </mxCell>
        <mxCell id="WP6UlXpYxhxJMxgLsShk-2" value="" style="rounded=0;whiteSpace=wrap;html=1;dashed=1;dashPattern=8 8;" vertex="1" parent="1">
          <mxGeometry x="40" y="260" width="640" height="310" as="geometry" />
        </mxCell>
        <mxCell id="WP6UlXpYxhxJMxgLsShk-3" style="edgeStyle=orthogonalEdgeStyle;rounded=0;sketch=0;orthogonalLoop=1;jettySize=auto;html=1;shadow=0;fontSize=10;endArrow=classic;endFill=1;exitX=0.5;exitY=1;exitDx=0;exitDy=0;entryX=0.5;entryY=0;entryDx=0;entryDy=0;" edge="1" parent="1" source="WP6UlXpYxhxJMxgLsShk-7" target="WP6UlXpYxhxJMxgLsShk-12">
          <mxGeometry relative="1" as="geometry">
            <mxPoint x="1769.6299999999999" y="379" as="sourcePoint" />
            <mxPoint x="1000" y="328" as="targetPoint" />
          </mxGeometry>
        </mxCell>
        <mxCell id="WP6UlXpYxhxJMxgLsShk-4" value="Y" style="rounded=0;sketch=0;orthogonalLoop=1;jettySize=auto;html=1;shadow=0;fontSize=10;endArrow=classic;endFill=1;exitX=0;exitY=0.5;exitDx=0;exitDy=0;exitPerimeter=0;entryX=0.5;entryY=0;entryDx=0;entryDy=0;entryPerimeter=0;edgeStyle=orthogonalEdgeStyle;" edge="1" parent="1" target="WP6UlXpYxhxJMxgLsShk-15">
          <mxGeometry x="0.4286" relative="1" as="geometry">
            <Array as="points">
              <mxPoint x="285" y="328" />
            </Array>
            <mxPoint x="315" y="328" as="sourcePoint" />
            <mxPoint x="265" y="468" as="targetPoint" />
            <mxPoint as="offset" />
          </mxGeometry>
        </mxCell>
        <mxCell id="WP6UlXpYxhxJMxgLsShk-5" style="edgeStyle=orthogonalEdgeStyle;rounded=0;orthogonalLoop=1;jettySize=auto;html=1;entryX=0.5;entryY=0;entryDx=0;entryDy=0;" edge="1" parent="1" source="WP6UlXpYxhxJMxgLsShk-6" target="WP6UlXpYxhxJMxgLsShk-7">
          <mxGeometry relative="1" as="geometry" />
        </mxCell>
        <mxCell id="WP6UlXpYxhxJMxgLsShk-6" value="Start" style="strokeWidth=2;html=1;shape=mxgraph.flowchart.start_1;whiteSpace=wrap;fontSize=10;container=0;" vertex="1" parent="1">
          <mxGeometry x="385" y="38" width="60" height="30" as="geometry" />
        </mxCell>
        <mxCell id="WP6UlXpYxhxJMxgLsShk-7" value="GET&lt;br&gt;/attachment/v1/attachments/{attachment-id}" style="rounded=1;whiteSpace=wrap;html=1;absoluteArcSize=1;arcSize=14;strokeWidth=2;fontSize=10;fillColor=#FFFFFF;" vertex="1" parent="1">
          <mxGeometry x="300" y="108" width="230" height="40" as="geometry" />
        </mxCell>
        <mxCell id="WP6UlXpYxhxJMxgLsShk-8" style="edgeStyle=orthogonalEdgeStyle;rounded=0;orthogonalLoop=1;jettySize=auto;html=1;entryX=0.5;entryY=0;entryDx=0;entryDy=0;exitX=1;exitY=0.5;exitDx=0;exitDy=0;exitPerimeter=0;" edge="1" parent="1">
          <mxGeometry relative="1" as="geometry">
            <mxPoint x="515" y="325" as="sourcePoint" />
            <mxPoint x="425" y="600" as="targetPoint" />
            <Array as="points">
              <mxPoint x="515" y="324" />
              <mxPoint x="570" y="324" />
              <mxPoint x="570" y="537" />
              <mxPoint x="425" y="537" />
            </Array>
          </mxGeometry>
        </mxCell>
        <mxCell id="WP6UlXpYxhxJMxgLsShk-9" value="N" style="edgeLabel;html=1;align=center;verticalAlign=middle;resizable=0;points=[];" vertex="1" connectable="0" parent="WP6UlXpYxhxJMxgLsShk-8">
          <mxGeometry x="0.3369" y="3" relative="1" as="geometry">
            <mxPoint x="65" y="-160" as="offset" />
          </mxGeometry>
        </mxCell>
        <mxCell id="WP6UlXpYxhxJMxgLsShk-10" value="isPermissionValidationEnabled" style="strokeWidth=2;html=1;shape=mxgraph.flowchart.decision;whiteSpace=wrap;fontSize=10;" vertex="1" parent="1">
          <mxGeometry x="315" y="293" width="200" height="70" as="geometry" />
        </mxCell>
        <mxCell id="WP6UlXpYxhxJMxgLsShk-11" style="edgeStyle=orthogonalEdgeStyle;rounded=0;orthogonalLoop=1;jettySize=auto;html=1;" edge="1" parent="1" source="WP6UlXpYxhxJMxgLsShk-12" target="WP6UlXpYxhxJMxgLsShk-10">
          <mxGeometry relative="1" as="geometry" />
        </mxCell>
        <mxCell id="WP6UlXpYxhxJMxgLsShk-12" value="getPermissionValidationProcessorByClientId" style="rounded=1;whiteSpace=wrap;html=1;absoluteArcSize=1;arcSize=14;strokeWidth=2;fontSize=10;fillColor=#FFFFFF;" vertex="1" parent="1">
          <mxGeometry x="301.5" y="198" width="227" height="40" as="geometry" />
        </mxCell>
        <mxCell id="WP6UlXpYxhxJMxgLsShk-13" style="rounded=0;orthogonalLoop=1;jettySize=auto;html=1;entryX=0.5;entryY=0;entryDx=0;entryDy=0;edgeStyle=orthogonalEdgeStyle;" edge="1" parent="1" source="WP6UlXpYxhxJMxgLsShk-15" target="WP6UlXpYxhxJMxgLsShk-17">
          <mxGeometry relative="1" as="geometry" />
        </mxCell>
        <mxCell id="WP6UlXpYxhxJMxgLsShk-14" style="edgeStyle=orthogonalEdgeStyle;rounded=0;orthogonalLoop=1;jettySize=auto;html=1;entryX=0.5;entryY=0;entryDx=0;entryDy=0;exitX=0;exitY=0.5;exitDx=0;exitDy=0;exitPerimeter=0;" edge="1" parent="1" source="WP6UlXpYxhxJMxgLsShk-15" target="WP6UlXpYxhxJMxgLsShk-21">
          <mxGeometry relative="1" as="geometry">
            <mxPoint x="100" y="513" as="targetPoint" />
          </mxGeometry>
        </mxCell>
        <mxCell id="WP6UlXpYxhxJMxgLsShk-15" value="isPermissionValid" style="strokeWidth=2;html=1;shape=mxgraph.flowchart.decision;whiteSpace=wrap;fontSize=10;" vertex="1" parent="1">
          <mxGeometry x="200" y="403" width="170" height="70" as="geometry" />
        </mxCell>
        <mxCell id="WP6UlXpYxhxJMxgLsShk-16" style="edgeStyle=orthogonalEdgeStyle;rounded=0;orthogonalLoop=1;jettySize=auto;html=1;entryX=0.5;entryY=0;entryDx=0;entryDy=0;entryPerimeter=0;" edge="1" parent="1" source="WP6UlXpYxhxJMxgLsShk-17" target="WP6UlXpYxhxJMxgLsShk-19">
          <mxGeometry relative="1" as="geometry" />
        </mxCell>
        <mxCell id="WP6UlXpYxhxJMxgLsShk-17" value="getPermissionValidationProcessorByClientId" style="rounded=1;whiteSpace=wrap;html=1;absoluteArcSize=1;arcSize=14;strokeWidth=2;fontSize=10;fillColor=#FFFFFF;" vertex="1" parent="1">
          <mxGeometry x="311.5" y="600" width="227" height="40" as="geometry" />
        </mxCell>
        <mxCell id="WP6UlXpYxhxJMxgLsShk-18" value="" style="group" vertex="1" connectable="0" parent="1">
          <mxGeometry x="410" y="658" width="30" height="30" as="geometry" />
        </mxCell>
        <mxCell id="WP6UlXpYxhxJMxgLsShk-19" value="" style="verticalLabelPosition=bottom;verticalAlign=top;html=1;shape=mxgraph.flowchart.on-page_reference;fontSize=10;" vertex="1" parent="WP6UlXpYxhxJMxgLsShk-18">
          <mxGeometry width="30" height="30" as="geometry" />
        </mxCell>
        <mxCell id="WP6UlXpYxhxJMxgLsShk-20" value="" style="verticalLabelPosition=bottom;verticalAlign=top;html=1;shape=mxgraph.flowchart.on-page_reference;fontSize=10;fillColor=#000000;" vertex="1" parent="WP6UlXpYxhxJMxgLsShk-18">
          <mxGeometry x="5" y="5" width="20" height="20" as="geometry" />
        </mxCell>
        <mxCell id="WP6UlXpYxhxJMxgLsShk-21" value="Throw unauth exception" style="rounded=1;whiteSpace=wrap;html=1;absoluteArcSize=1;arcSize=14;strokeWidth=2;fontSize=10;fillColor=#FFFFFF;" vertex="1" parent="1">
          <mxGeometry x="80" y="508" width="120" height="40" as="geometry" />
        </mxCell>
        <mxCell id="WP6UlXpYxhxJMxgLsShk-22" value="Permission Validation" style="text;html=1;align=center;verticalAlign=middle;resizable=0;points=[];autosize=1;strokeColor=none;fillColor=none;" vertex="1" parent="1">
          <mxGeometry x="40" y="260" width="140" height="30" as="geometry" />
        </mxCell>
      </root>
    </mxGraphModel>
  </diagram>
  <diagram id="lvnzLo1QL0_E-gNVDNBP" name="Page-5">
    <mxGraphModel dx="2074" dy="1131" grid="1" gridSize="10" guides="1" tooltips="1" connect="1" arrows="1" fold="1" page="1" pageScale="1" pageWidth="827" pageHeight="1169" math="0" shadow="0">
      <root>
        <mxCell id="0" />
        <mxCell id="1" parent="0" />
        <mxCell id="XNiwQEf2dC3Af77TIJA8-1" value="&lt;font style=&quot;font-size: 8px;&quot;&gt;upload attachment&lt;/font&gt;" style="rounded=0;whiteSpace=wrap;html=1;" vertex="1" parent="1">
          <mxGeometry x="223.79310344827584" y="20" width="115.86206896551724" height="38.75000000000001" as="geometry" />
        </mxCell>
        <mxCell id="XNiwQEf2dC3Af77TIJA8-2" style="edgeStyle=orthogonalEdgeStyle;rounded=0;orthogonalLoop=1;jettySize=auto;html=1;exitX=0.5;exitY=1;exitDx=0;exitDy=0;fontSize=8;entryX=0.5;entryY=0;entryDx=0;entryDy=0;" edge="1" parent="1" source="XNiwQEf2dC3Af77TIJA8-4" target="XNiwQEf2dC3Af77TIJA8-6">
          <mxGeometry relative="1" as="geometry">
            <mxPoint x="490" y="290" as="targetPoint" />
          </mxGeometry>
        </mxCell>
        <mxCell id="XNiwQEf2dC3Af77TIJA8-3" value="Y" style="edgeLabel;html=1;align=center;verticalAlign=middle;resizable=0;points=[];fontSize=8;" vertex="1" connectable="0" parent="XNiwQEf2dC3Af77TIJA8-2">
          <mxGeometry x="-0.6762" relative="1" as="geometry">
            <mxPoint y="5" as="offset" />
          </mxGeometry>
        </mxCell>
        <mxCell id="XNiwQEf2dC3Af77TIJA8-4" value="is virusscan enabled&amp;nbsp;" style="rhombus;whiteSpace=wrap;html=1;fontSize=8;" vertex="1" parent="1">
          <mxGeometry x="209.31" y="240" width="144.83" height="51.67" as="geometry" />
        </mxCell>
        <mxCell id="XNiwQEf2dC3Af77TIJA8-5" style="edgeStyle=orthogonalEdgeStyle;rounded=0;orthogonalLoop=1;jettySize=auto;html=1;exitX=0.5;exitY=1;exitDx=0;exitDy=0;fontSize=8;entryX=0.5;entryY=0;entryDx=0;entryDy=0;" edge="1" parent="1" source="XNiwQEf2dC3Af77TIJA8-1" target="XNiwQEf2dC3Af77TIJA8-14">
          <mxGeometry relative="1" as="geometry">
            <mxPoint x="281.44827586206907" y="84.58333333333334" as="targetPoint" />
          </mxGeometry>
        </mxCell>
        <mxCell id="XNiwQEf2dC3Af77TIJA8-6" value="&lt;font style=&quot;font-size: 8px;&quot;&gt;upload attachment to ff service&lt;/font&gt;" style="rounded=0;whiteSpace=wrap;html=1;" vertex="1" parent="1">
          <mxGeometry x="223.79310344827584" y="330.00000000000006" width="115.86206896551724" height="38.75000000000001" as="geometry" />
        </mxCell>
        <mxCell id="XNiwQEf2dC3Af77TIJA8-7" style="edgeStyle=orthogonalEdgeStyle;rounded=0;orthogonalLoop=1;jettySize=auto;html=1;exitX=0.5;exitY=1;exitDx=0;exitDy=0;fontSize=8;entryX=0.5;entryY=0;entryDx=0;entryDy=0;" edge="1" parent="1" source="XNiwQEf2dC3Af77TIJA8-9" target="XNiwQEf2dC3Af77TIJA8-21">
          <mxGeometry relative="1" as="geometry">
            <mxPoint x="281.7241379310344" y="510.00333333333333" as="targetPoint" />
          </mxGeometry>
        </mxCell>
        <mxCell id="XNiwQEf2dC3Af77TIJA8-8" value="Y" style="edgeLabel;html=1;align=center;verticalAlign=middle;resizable=0;points=[];fontSize=8;" vertex="1" connectable="0" parent="XNiwQEf2dC3Af77TIJA8-7">
          <mxGeometry x="-0.3318" relative="1" as="geometry">
            <mxPoint as="offset" />
          </mxGeometry>
        </mxCell>
        <mxCell id="XNiwQEf2dC3Af77TIJA8-9" value="virus check passed" style="rhombus;whiteSpace=wrap;html=1;fontSize=8;" vertex="1" parent="1">
          <mxGeometry x="209.31034482758622" y="407.50000000000006" width="144.82758620689657" height="51.66666666666667" as="geometry" />
        </mxCell>
        <mxCell id="XNiwQEf2dC3Af77TIJA8-10" style="edgeStyle=orthogonalEdgeStyle;rounded=0;orthogonalLoop=1;jettySize=auto;html=1;exitX=0.5;exitY=1;exitDx=0;exitDy=0;entryX=0.5;entryY=0;entryDx=0;entryDy=0;fontSize=8;" edge="1" parent="1" source="XNiwQEf2dC3Af77TIJA8-6" target="XNiwQEf2dC3Af77TIJA8-9">
          <mxGeometry relative="1" as="geometry" />
        </mxCell>
        <mxCell id="XNiwQEf2dC3Af77TIJA8-11" style="edgeStyle=orthogonalEdgeStyle;rounded=0;orthogonalLoop=1;jettySize=auto;html=1;fontSize=8;entryX=1;entryY=0.5;entryDx=0;entryDy=0;" edge="1" parent="1" source="XNiwQEf2dC3Af77TIJA8-9" target="XNiwQEf2dC3Af77TIJA8-22">
          <mxGeometry relative="1" as="geometry">
            <mxPoint x="160" y="433" as="targetPoint" />
          </mxGeometry>
        </mxCell>
        <mxCell id="XNiwQEf2dC3Af77TIJA8-12" value="N" style="edgeLabel;html=1;align=center;verticalAlign=middle;resizable=0;points=[];fontSize=8;" vertex="1" connectable="0" parent="XNiwQEf2dC3Af77TIJA8-11">
          <mxGeometry x="-0.7395" relative="1" as="geometry">
            <mxPoint x="-14" as="offset" />
          </mxGeometry>
        </mxCell>
        <mxCell id="XNiwQEf2dC3Af77TIJA8-13" value="N" style="edgeStyle=orthogonalEdgeStyle;rounded=0;orthogonalLoop=1;jettySize=auto;html=1;entryX=0.5;entryY=0;entryDx=0;entryDy=0;fontSize=8;" edge="1" parent="1" source="XNiwQEf2dC3Af77TIJA8-14" target="XNiwQEf2dC3Af77TIJA8-22">
          <mxGeometry x="-0.1667" relative="1" as="geometry">
            <mxPoint as="offset" />
            <mxPoint x="107.9310344827586" y="410.72916666666674" as="targetPoint" />
          </mxGeometry>
        </mxCell>
        <mxCell id="XNiwQEf2dC3Af77TIJA8-14" value="File name, file size check passed" style="rhombus;whiteSpace=wrap;html=1;fontSize=8;" vertex="1" parent="1">
          <mxGeometry x="209.31034482758622" y="139.99666666666673" width="144.82758620689657" height="51.66666666666667" as="geometry" />
        </mxCell>
        <mxCell id="XNiwQEf2dC3Af77TIJA8-15" style="edgeStyle=orthogonalEdgeStyle;rounded=0;orthogonalLoop=1;jettySize=auto;html=1;fontSize=8;exitX=1;exitY=0.5;exitDx=0;exitDy=0;entryX=1;entryY=0.5;entryDx=0;entryDy=0;" edge="1" parent="1" source="XNiwQEf2dC3Af77TIJA8-4" target="XNiwQEf2dC3Af77TIJA8-21">
          <mxGeometry relative="1" as="geometry">
            <mxPoint x="354.13793103448256" y="535.8366666666666" as="targetPoint" />
            <Array as="points">
              <mxPoint x="390" y="266" />
              <mxPoint x="390" y="530" />
              <mxPoint x="340" y="530" />
            </Array>
          </mxGeometry>
        </mxCell>
        <mxCell id="XNiwQEf2dC3Af77TIJA8-16" value="N" style="edgeLabel;html=1;align=center;verticalAlign=middle;resizable=0;points=[];fontSize=8;" vertex="1" connectable="0" parent="XNiwQEf2dC3Af77TIJA8-15">
          <mxGeometry x="-0.0786" relative="1" as="geometry">
            <mxPoint as="offset" />
          </mxGeometry>
        </mxCell>
        <mxCell id="XNiwQEf2dC3Af77TIJA8-17" style="edgeStyle=orthogonalEdgeStyle;rounded=0;orthogonalLoop=1;jettySize=auto;html=1;exitX=0.5;exitY=1;exitDx=0;exitDy=0;fontSize=8;entryX=0.5;entryY=0;entryDx=0;entryDy=0;" edge="1" parent="1" source="XNiwQEf2dC3Af77TIJA8-14" target="XNiwQEf2dC3Af77TIJA8-4">
          <mxGeometry relative="1" as="geometry">
            <mxPoint x="420" y="230" as="targetPoint" />
          </mxGeometry>
        </mxCell>
        <mxCell id="XNiwQEf2dC3Af77TIJA8-18" value="&lt;font style=&quot;font-size: 8px;&quot;&gt;Y&lt;/font&gt;" style="edgeLabel;html=1;align=center;verticalAlign=middle;resizable=0;points=[];" vertex="1" connectable="0" parent="XNiwQEf2dC3Af77TIJA8-17">
          <mxGeometry x="-0.1792" relative="1" as="geometry">
            <mxPoint as="offset" />
          </mxGeometry>
        </mxCell>
        <mxCell id="XNiwQEf2dC3Af77TIJA8-19" value="add new record into table" style="strokeWidth=2;html=1;shape=mxgraph.flowchart.terminator;whiteSpace=wrap;fontSize=8;" vertex="1" parent="1">
          <mxGeometry x="216.72" y="585" width="130" height="45" as="geometry" />
        </mxCell>
        <mxCell id="XNiwQEf2dC3Af77TIJA8-20" style="edgeStyle=orthogonalEdgeStyle;rounded=0;orthogonalLoop=1;jettySize=auto;html=1;entryX=0.5;entryY=0;entryDx=0;entryDy=0;entryPerimeter=0;" edge="1" parent="1" source="XNiwQEf2dC3Af77TIJA8-21" target="XNiwQEf2dC3Af77TIJA8-19">
          <mxGeometry relative="1" as="geometry" />
        </mxCell>
        <mxCell id="XNiwQEf2dC3Af77TIJA8-21" value="&lt;span style=&quot;font-size: 8px;&quot;&gt;Upload to NFS&lt;/span&gt;" style="rounded=0;whiteSpace=wrap;html=1;" vertex="1" parent="1">
          <mxGeometry x="223.79" y="510" width="115.86" height="40" as="geometry" />
        </mxCell>
        <mxCell id="XNiwQEf2dC3Af77TIJA8-22" value="&lt;span style=&quot;font-size: 8px;&quot;&gt;Throw exception&lt;/span&gt;" style="rounded=0;whiteSpace=wrap;html=1;" vertex="1" parent="1">
          <mxGeometry x="50" y="413.33000000000004" width="115.86" height="40" as="geometry" />
        </mxCell>
      </root>
    </mxGraphModel>
  </diagram>
  <diagram id="fbjDAeH8fTkWkMj29WZs" name="Page-6">
    <mxGraphModel dx="2074" dy="1131" grid="1" gridSize="10" guides="1" tooltips="1" connect="1" arrows="1" fold="1" page="1" pageScale="1" pageWidth="827" pageHeight="1169" math="0" shadow="0">
      <root>
        <mxCell id="0" />
        <mxCell id="1" parent="0" />
        <mxCell id="F0aUrqPXZBn48vhJ8s_P-1" value="&lt;font style=&quot;font-size: 8px;&quot;&gt;upload attachment&lt;/font&gt;" style="rounded=0;whiteSpace=wrap;html=1;" vertex="1" parent="1">
          <mxGeometry x="223.79310344827584" y="20" width="115.86206896551724" height="38.75000000000001" as="geometry" />
        </mxCell>
        <mxCell id="F0aUrqPXZBn48vhJ8s_P-2" style="edgeStyle=orthogonalEdgeStyle;rounded=0;orthogonalLoop=1;jettySize=auto;html=1;exitX=0.5;exitY=1;exitDx=0;exitDy=0;fontSize=8;entryX=0.5;entryY=0;entryDx=0;entryDy=0;" edge="1" parent="1" source="F0aUrqPXZBn48vhJ8s_P-4" target="F0aUrqPXZBn48vhJ8s_P-6">
          <mxGeometry relative="1" as="geometry">
            <mxPoint x="490" y="350" as="targetPoint" />
          </mxGeometry>
        </mxCell>
        <mxCell id="F0aUrqPXZBn48vhJ8s_P-3" value="Y" style="edgeLabel;html=1;align=center;verticalAlign=middle;resizable=0;points=[];fontSize=8;" vertex="1" connectable="0" parent="F0aUrqPXZBn48vhJ8s_P-2">
          <mxGeometry x="-0.6762" relative="1" as="geometry">
            <mxPoint y="5" as="offset" />
          </mxGeometry>
        </mxCell>
        <mxCell id="F0aUrqPXZBn48vhJ8s_P-4" value="is virusscan enabled&amp;nbsp;" style="rhombus;whiteSpace=wrap;html=1;fontSize=8;" vertex="1" parent="1">
          <mxGeometry x="209.31" y="330" width="144.83" height="51.67" as="geometry" />
        </mxCell>
        <mxCell id="F0aUrqPXZBn48vhJ8s_P-5" style="edgeStyle=orthogonalEdgeStyle;rounded=0;orthogonalLoop=1;jettySize=auto;html=1;exitX=0.5;exitY=1;exitDx=0;exitDy=0;fontSize=8;entryX=0.5;entryY=0;entryDx=0;entryDy=0;" edge="1" parent="1" source="F0aUrqPXZBn48vhJ8s_P-1" target="F0aUrqPXZBn48vhJ8s_P-14">
          <mxGeometry relative="1" as="geometry">
            <mxPoint x="281.44827586206907" y="84.58333333333334" as="targetPoint" />
          </mxGeometry>
        </mxCell>
        <mxCell id="F0aUrqPXZBn48vhJ8s_P-6" value="&lt;font style=&quot;font-size: 8px;&quot;&gt;upload attachment to ff service&lt;/font&gt;" style="rounded=0;whiteSpace=wrap;html=1;" vertex="1" parent="1">
          <mxGeometry x="223.79310344827584" y="420.00000000000006" width="115.86206896551724" height="38.75000000000001" as="geometry" />
        </mxCell>
        <mxCell id="F0aUrqPXZBn48vhJ8s_P-7" style="edgeStyle=orthogonalEdgeStyle;rounded=0;orthogonalLoop=1;jettySize=auto;html=1;" edge="1" parent="1" source="F0aUrqPXZBn48vhJ8s_P-9" target="F0aUrqPXZBn48vhJ8s_P-20">
          <mxGeometry relative="1" as="geometry" />
        </mxCell>
        <mxCell id="F0aUrqPXZBn48vhJ8s_P-8" value="Y" style="edgeLabel;html=1;align=center;verticalAlign=middle;resizable=0;points=[];" vertex="1" connectable="0" parent="F0aUrqPXZBn48vhJ8s_P-7">
          <mxGeometry x="-0.0145" y="-2" relative="1" as="geometry">
            <mxPoint x="2" y="1" as="offset" />
          </mxGeometry>
        </mxCell>
        <mxCell id="F0aUrqPXZBn48vhJ8s_P-9" value="virus check passed" style="rhombus;whiteSpace=wrap;html=1;fontSize=8;" vertex="1" parent="1">
          <mxGeometry x="209.31034482758622" y="503.00000000000006" width="144.82758620689657" height="51.66666666666667" as="geometry" />
        </mxCell>
        <mxCell id="F0aUrqPXZBn48vhJ8s_P-10" style="edgeStyle=orthogonalEdgeStyle;rounded=0;orthogonalLoop=1;jettySize=auto;html=1;exitX=0.5;exitY=1;exitDx=0;exitDy=0;entryX=0.5;entryY=0;entryDx=0;entryDy=0;fontSize=8;" edge="1" parent="1" source="F0aUrqPXZBn48vhJ8s_P-6" target="F0aUrqPXZBn48vhJ8s_P-9">
          <mxGeometry relative="1" as="geometry">
            <mxPoint x="281.7241379310344" y="470" as="sourcePoint" />
          </mxGeometry>
        </mxCell>
        <mxCell id="F0aUrqPXZBn48vhJ8s_P-11" style="edgeStyle=orthogonalEdgeStyle;rounded=0;orthogonalLoop=1;jettySize=auto;html=1;fontSize=8;entryX=1;entryY=0.5;entryDx=0;entryDy=0;" edge="1" parent="1" source="F0aUrqPXZBn48vhJ8s_P-9" target="F0aUrqPXZBn48vhJ8s_P-24">
          <mxGeometry relative="1" as="geometry">
            <mxPoint x="165.86206896551744" y="528.8333333333335" as="targetPoint" />
          </mxGeometry>
        </mxCell>
        <mxCell id="F0aUrqPXZBn48vhJ8s_P-12" value="N" style="edgeLabel;html=1;align=center;verticalAlign=middle;resizable=0;points=[];fontSize=8;" vertex="1" connectable="0" parent="F0aUrqPXZBn48vhJ8s_P-11">
          <mxGeometry x="-0.7395" relative="1" as="geometry">
            <mxPoint x="-14" as="offset" />
          </mxGeometry>
        </mxCell>
        <mxCell id="F0aUrqPXZBn48vhJ8s_P-13" value="N" style="edgeStyle=orthogonalEdgeStyle;rounded=0;orthogonalLoop=1;jettySize=auto;html=1;entryX=0.5;entryY=0;entryDx=0;entryDy=0;fontSize=8;" edge="1" parent="1" source="F0aUrqPXZBn48vhJ8s_P-14" target="F0aUrqPXZBn48vhJ8s_P-24">
          <mxGeometry x="-0.0577" relative="1" as="geometry">
            <mxPoint as="offset" />
            <mxPoint x="107.9310344827586" y="506.22916666666674" as="targetPoint" />
          </mxGeometry>
        </mxCell>
        <mxCell id="F0aUrqPXZBn48vhJ8s_P-14" value="File name, file size check passed" style="rhombus;whiteSpace=wrap;html=1;fontSize=8;" vertex="1" parent="1">
          <mxGeometry x="209.31034482758622" y="89.99666666666673" width="144.82758620689657" height="51.66666666666667" as="geometry" />
        </mxCell>
        <mxCell id="F0aUrqPXZBn48vhJ8s_P-15" style="edgeStyle=orthogonalEdgeStyle;rounded=0;orthogonalLoop=1;jettySize=auto;html=1;exitX=0.5;exitY=1;exitDx=0;exitDy=0;entryX=0.5;entryY=0;entryDx=0;entryDy=0;entryPerimeter=0;" edge="1" parent="1" source="F0aUrqPXZBn48vhJ8s_P-23" target="F0aUrqPXZBn48vhJ8s_P-22">
          <mxGeometry relative="1" as="geometry">
            <mxPoint x="281.6857142857141" y="221.67000000000007" as="sourcePoint" />
            <mxPoint x="282" y="240" as="targetPoint" />
          </mxGeometry>
        </mxCell>
        <mxCell id="F0aUrqPXZBn48vhJ8s_P-16" style="edgeStyle=orthogonalEdgeStyle;rounded=0;orthogonalLoop=1;jettySize=auto;html=1;exitX=1;exitY=0.5;exitDx=0;exitDy=0;entryX=1;entryY=0.5;entryDx=0;entryDy=0;entryPerimeter=0;" edge="1" parent="1" source="F0aUrqPXZBn48vhJ8s_P-4" target="F0aUrqPXZBn48vhJ8s_P-20">
          <mxGeometry relative="1" as="geometry">
            <Array as="points">
              <mxPoint x="390" y="356" />
              <mxPoint x="390" y="626" />
            </Array>
          </mxGeometry>
        </mxCell>
        <mxCell id="F0aUrqPXZBn48vhJ8s_P-17" value="N" style="edgeLabel;html=1;align=center;verticalAlign=middle;resizable=0;points=[];" vertex="1" connectable="0" parent="F0aUrqPXZBn48vhJ8s_P-16">
          <mxGeometry x="0.0436" y="-2" relative="1" as="geometry">
            <mxPoint y="35" as="offset" />
          </mxGeometry>
        </mxCell>
        <mxCell id="F0aUrqPXZBn48vhJ8s_P-18" style="edgeStyle=orthogonalEdgeStyle;rounded=0;orthogonalLoop=1;jettySize=auto;html=1;exitX=0.5;exitY=1;exitDx=0;exitDy=0;fontSize=8;entryX=0.5;entryY=0;entryDx=0;entryDy=0;" edge="1" parent="1" source="F0aUrqPXZBn48vhJ8s_P-14" target="F0aUrqPXZBn48vhJ8s_P-23">
          <mxGeometry relative="1" as="geometry">
            <mxPoint x="281.7241379310344" y="170.00333333333333" as="targetPoint" />
          </mxGeometry>
        </mxCell>
        <mxCell id="F0aUrqPXZBn48vhJ8s_P-19" value="&lt;font style=&quot;font-size: 8px;&quot;&gt;Y&lt;/font&gt;" style="edgeLabel;html=1;align=center;verticalAlign=middle;resizable=0;points=[];" vertex="1" connectable="0" parent="F0aUrqPXZBn48vhJ8s_P-18">
          <mxGeometry x="-0.1792" relative="1" as="geometry">
            <mxPoint as="offset" />
          </mxGeometry>
        </mxCell>
        <mxCell id="F0aUrqPXZBn48vhJ8s_P-20" value="update status of file record" style="strokeWidth=2;html=1;shape=mxgraph.flowchart.terminator;whiteSpace=wrap;fontSize=8;" vertex="1" parent="1">
          <mxGeometry x="209.31" y="600" width="144.82758620689657" height="51.66666666666667" as="geometry" />
        </mxCell>
        <mxCell id="F0aUrqPXZBn48vhJ8s_P-21" style="edgeStyle=orthogonalEdgeStyle;rounded=0;orthogonalLoop=1;jettySize=auto;html=1;entryX=0.5;entryY=0;entryDx=0;entryDy=0;" edge="1" parent="1" source="F0aUrqPXZBn48vhJ8s_P-22" target="F0aUrqPXZBn48vhJ8s_P-4">
          <mxGeometry relative="1" as="geometry" />
        </mxCell>
        <mxCell id="F0aUrqPXZBn48vhJ8s_P-22" value="add new record into table" style="strokeWidth=2;html=1;shape=mxgraph.flowchart.terminator;whiteSpace=wrap;fontSize=8;" vertex="1" parent="1">
          <mxGeometry x="209.31" y="240" width="144.83" height="48.33" as="geometry" />
        </mxCell>
        <mxCell id="F0aUrqPXZBn48vhJ8s_P-23" value="&lt;span style=&quot;font-size: 8px;&quot;&gt;Upload to NFS&lt;/span&gt;" style="rounded=0;whiteSpace=wrap;html=1;" vertex="1" parent="1">
          <mxGeometry x="223.79310344827584" y="170.00000000000006" width="115.86206896551724" height="38.75000000000001" as="geometry" />
        </mxCell>
        <mxCell id="F0aUrqPXZBn48vhJ8s_P-24" value="&lt;span style=&quot;font-size: 8px;&quot;&gt;Throw exception&lt;/span&gt;" style="rounded=0;whiteSpace=wrap;html=1;" vertex="1" parent="1">
          <mxGeometry x="50.00310344827585" y="509.46" width="115.86206896551724" height="38.75000000000001" as="geometry" />
        </mxCell>
      </root>
    </mxGraphModel>
  </diagram>
  <diagram id="uN1zkbqjWspa_2mehnBX" name="Page-7">
    <mxGraphModel dx="2074" dy="1131" grid="1" gridSize="10" guides="1" tooltips="1" connect="1" arrows="1" fold="1" page="1" pageScale="1" pageWidth="827" pageHeight="1169" math="0" shadow="0">
      <root>
        <mxCell id="0" />
        <mxCell id="1" parent="0" />
        <mxCell id="3DIe9CyS96nJNleOUY_w-1" style="rounded=0;orthogonalLoop=1;jettySize=auto;html=1;fontSize=10;" edge="1" parent="1" source="3DIe9CyS96nJNleOUY_w-4" target="3DIe9CyS96nJNleOUY_w-10">
          <mxGeometry relative="1" as="geometry" />
        </mxCell>
        <mxCell id="3DIe9CyS96nJNleOUY_w-2" style="edgeStyle=none;rounded=0;orthogonalLoop=1;jettySize=auto;html=1;entryX=0;entryY=1;entryDx=0;entryDy=0;fontSize=10;exitX=1;exitY=0;exitDx=0;exitDy=0;" edge="1" parent="1" source="3DIe9CyS96nJNleOUY_w-4" target="3DIe9CyS96nJNleOUY_w-14">
          <mxGeometry relative="1" as="geometry" />
        </mxCell>
        <mxCell id="3DIe9CyS96nJNleOUY_w-3" style="edgeStyle=none;rounded=0;orthogonalLoop=1;jettySize=auto;html=1;entryX=0;entryY=1;entryDx=0;entryDy=0;fontSize=10;exitX=0.5;exitY=0;exitDx=0;exitDy=0;" edge="1" parent="1" source="3DIe9CyS96nJNleOUY_w-4" target="3DIe9CyS96nJNleOUY_w-9">
          <mxGeometry relative="1" as="geometry" />
        </mxCell>
        <mxCell id="3DIe9CyS96nJNleOUY_w-4" value="&lt;font style=&quot;font-size: 10px;&quot;&gt;Uploaded&lt;/font&gt;" style="ellipse;whiteSpace=wrap;html=1;aspect=fixed;fillColor=#fff2cc;strokeColor=#d6b656;" vertex="1" parent="1">
          <mxGeometry x="270" y="470" width="80" height="80" as="geometry" />
        </mxCell>
        <mxCell id="3DIe9CyS96nJNleOUY_w-5" style="edgeStyle=none;rounded=0;orthogonalLoop=1;jettySize=auto;html=1;entryX=0;entryY=0.5;entryDx=0;entryDy=0;fontSize=10;" edge="1" parent="1" source="3DIe9CyS96nJNleOUY_w-9" target="3DIe9CyS96nJNleOUY_w-11">
          <mxGeometry relative="1" as="geometry" />
        </mxCell>
        <mxCell id="3DIe9CyS96nJNleOUY_w-6" style="edgeStyle=none;rounded=0;orthogonalLoop=1;jettySize=auto;html=1;entryX=0;entryY=0.5;entryDx=0;entryDy=0;fontSize=10;" edge="1" parent="1" source="3DIe9CyS96nJNleOUY_w-9" target="3DIe9CyS96nJNleOUY_w-15">
          <mxGeometry relative="1" as="geometry" />
        </mxCell>
        <mxCell id="3DIe9CyS96nJNleOUY_w-7" style="edgeStyle=none;rounded=0;orthogonalLoop=1;jettySize=auto;html=1;entryX=0.5;entryY=0;entryDx=0;entryDy=0;fontSize=10;" edge="1" parent="1" source="3DIe9CyS96nJNleOUY_w-9" target="3DIe9CyS96nJNleOUY_w-10">
          <mxGeometry relative="1" as="geometry" />
        </mxCell>
        <mxCell id="3DIe9CyS96nJNleOUY_w-8" style="edgeStyle=none;rounded=0;orthogonalLoop=1;jettySize=auto;html=1;entryX=0.5;entryY=0;entryDx=0;entryDy=0;fontSize=10;" edge="1" parent="1" source="3DIe9CyS96nJNleOUY_w-9" target="3DIe9CyS96nJNleOUY_w-14">
          <mxGeometry relative="1" as="geometry" />
        </mxCell>
        <mxCell id="3DIe9CyS96nJNleOUY_w-9" value="&lt;font style=&quot;font-size: 10px;&quot;&gt;Scanning&lt;/font&gt;" style="ellipse;whiteSpace=wrap;html=1;aspect=fixed;fillColor=#fff2cc;strokeColor=#d6b656;" vertex="1" parent="1">
          <mxGeometry x="460" y="150" width="80" height="80" as="geometry" />
        </mxCell>
        <mxCell id="3DIe9CyS96nJNleOUY_w-10" value="&lt;font style=&quot;font-size: 10px;&quot;&gt;Ready_for_use&lt;/font&gt;" style="ellipse;whiteSpace=wrap;html=1;aspect=fixed;fillColor=#d5e8d4;strokeColor=#82b366;" vertex="1" parent="1">
          <mxGeometry x="710" y="470" width="80" height="80" as="geometry" />
        </mxCell>
        <mxCell id="3DIe9CyS96nJNleOUY_w-11" value="&lt;font style=&quot;font-size: 10px;&quot;&gt;Virus_Detected&lt;/font&gt;" style="ellipse;whiteSpace=wrap;html=1;aspect=fixed;fillColor=#f8cecc;strokeColor=#b85450;" vertex="1" parent="1">
          <mxGeometry x="710" y="150" width="80" height="80" as="geometry" />
        </mxCell>
        <mxCell id="3DIe9CyS96nJNleOUY_w-12" style="edgeStyle=none;rounded=0;orthogonalLoop=1;jettySize=auto;html=1;fontSize=10;entryX=0;entryY=0;entryDx=0;entryDy=0;exitX=1;exitY=1;exitDx=0;exitDy=0;" edge="1" parent="1" source="3DIe9CyS96nJNleOUY_w-14" target="3DIe9CyS96nJNleOUY_w-10">
          <mxGeometry relative="1" as="geometry" />
        </mxCell>
        <mxCell id="3DIe9CyS96nJNleOUY_w-13" style="edgeStyle=none;rounded=0;orthogonalLoop=1;jettySize=auto;html=1;entryX=0.5;entryY=0;entryDx=0;entryDy=0;fontSize=10;" edge="1" parent="1" source="3DIe9CyS96nJNleOUY_w-14" target="3DIe9CyS96nJNleOUY_w-16">
          <mxGeometry relative="1" as="geometry" />
        </mxCell>
        <mxCell id="3DIe9CyS96nJNleOUY_w-14" value="&lt;font style=&quot;font-size: 10px;&quot;&gt;Thumbnail&lt;br&gt;_Generating&lt;br&gt;&lt;/font&gt;" style="ellipse;whiteSpace=wrap;html=1;aspect=fixed;fillColor=#d5e8d4;strokeColor=#82b366;" vertex="1" parent="1">
          <mxGeometry x="460" y="290" width="80" height="80" as="geometry" />
        </mxCell>
        <mxCell id="3DIe9CyS96nJNleOUY_w-15" value="&lt;font style=&quot;font-size: 10px;&quot;&gt;Scanning_failed&lt;/font&gt;" style="ellipse;whiteSpace=wrap;html=1;aspect=fixed;fillColor=#f8cecc;strokeColor=#b85450;" vertex="1" parent="1">
          <mxGeometry x="710" y="40" width="80" height="80" as="geometry" />
        </mxCell>
        <mxCell id="3DIe9CyS96nJNleOUY_w-16" value="&lt;font style=&quot;font-size: 10px;&quot;&gt;Generated&lt;br&gt;_Failed&lt;br&gt;&lt;/font&gt;" style="ellipse;whiteSpace=wrap;html=1;aspect=fixed;fillColor=#e1d5e7;strokeColor=#9673a6;" vertex="1" parent="1">
          <mxGeometry x="460" y="400" width="80" height="80" as="geometry" />
        </mxCell>
        <mxCell id="3DIe9CyS96nJNleOUY_w-17" style="edgeStyle=none;rounded=0;orthogonalLoop=1;jettySize=auto;html=1;entryX=0;entryY=0.5;entryDx=0;entryDy=0;fontSize=10;" edge="1" parent="1" source="3DIe9CyS96nJNleOUY_w-18" target="3DIe9CyS96nJNleOUY_w-4">
          <mxGeometry relative="1" as="geometry" />
        </mxCell>
        <mxCell id="3DIe9CyS96nJNleOUY_w-18" value="User" style="shape=umlActor;verticalLabelPosition=bottom;verticalAlign=top;html=1;outlineConnect=0;fontSize=10;" vertex="1" parent="1">
          <mxGeometry x="100" y="480" width="30" height="60" as="geometry" />
        </mxCell>
      </root>
    </mxGraphModel>
  </diagram>
</mxfile>
